<svg xmlns="http://www.w3.org/2000/svg" viewBox="0 0 167.962 76.375" height="76.375" width="167.962"><rect height="100%" width="100%" fill="#d41815"/><g fill="#fff"><path d="M149.373 51.355V53h-1.064v.949h1.064v3.746c0 .81.127 1.419.48 1.787.299.34.766.524 1.348.524.482 0 .867-.071 1.107-.171l-.057-.935a2.75 2.75 0 0 1-.723.085c-.697 0-.939-.481-.939-1.334v-3.703h1.789V53h-1.789v-1.972l-1.216.327zm-3.604 5.629c0 .199-.014.369-.057.539-.227.938-.994 1.492-1.83 1.492-1.348 0-2.029-1.15-2.029-2.54 0-1.52.766-2.654 2.057-2.654.938 0 1.619.653 1.803 1.448.043.156.057.369.057.524v1.191zm0-7.19v4.099h-.027c-.313-.552-1.023-1.048-2.072-1.048-1.676 0-3.092 1.402-3.078 3.687 0 2.086 1.275 3.489 2.936 3.489 1.121 0 1.959-.58 2.342-1.346h.029l.055 1.189h1.119a23.027 23.027 0 0 1-.055-1.772v-8.298h-1.249zm-7.9 7.759c0 .128-.029.27-.07.397-.199.582-.768 1.15-1.662 1.15-.639 0-1.178-.383-1.178-1.193 0-1.334 1.547-1.575 2.91-1.547v1.193zm1.318 2.311c-.086-.468-.113-1.05-.113-1.645v-2.567c0-1.376-.51-2.808-2.609-2.808-.867 0-1.689.24-2.256.608l.283.823c.48-.313 1.148-.512 1.787-.512 1.406 0 1.561 1.022 1.561 1.591v.142c-2.652-.014-4.127.893-4.127 2.552 0 .994.709 1.972 2.1 1.972.979 0 1.717-.481 2.1-1.021h.043l.098.864h1.133zm-9.346-8.509V53h-1.064v.949h1.064v3.746c0 .81.127 1.419.48 1.787.299.34.766.524 1.348.524.482 0 .865-.071 1.105-.171l-.057-.935a2.75 2.75 0 0 1-.723.085c-.695 0-.936-.481-.936-1.334v-3.703h1.785V53h-1.785v-1.972l-1.217.327zm-6.383 8.184c.482.283 1.176.468 1.928.468 1.633 0 2.566-.851 2.566-2.057 0-1.021-.609-1.617-1.801-2.07-.895-.342-1.307-.597-1.307-1.164 0-.512.412-.937 1.15-.937.639 0 1.135.228 1.404.397l.313-.907c-.383-.228-.992-.425-1.688-.425-1.477 0-2.369.905-2.369 2.013 0 .823.582 1.504 1.814 1.944.924.341 1.277.667 1.277 1.263 0 .568-.424 1.021-1.334 1.021-.625 0-1.275-.256-1.643-.496l-.31.95zm-5.617 0c.482.283 1.176.468 1.928.468 1.633 0 2.566-.851 2.566-2.057 0-1.021-.609-1.617-1.801-2.07-.893-.342-1.305-.597-1.305-1.164 0-.512.412-.937 1.148-.937.641 0 1.135.228 1.404.397l.313-.907c-.383-.228-.992-.425-1.688-.425-1.477 0-2.369.905-2.369 2.013 0 .823.582 1.504 1.816 1.944.922.341 1.277.667 1.277 1.263 0 .568-.426 1.021-1.336 1.021-.625 0-1.275-.256-1.643-.496l-.31.95zm-3.927-8.184V53h-1.064v.949h1.064v3.746c0 .81.127 1.419.482 1.787.297.34.764.524 1.346.524.482 0 .865-.071 1.104-.171l-.055-.935a2.738 2.738 0 0 1-.723.085c-.695 0-.936-.481-.936-1.334v-3.703h1.785V53h-1.785v-1.972l-1.218.327zm-3.364.423c.412 0 .695-.34.695-.722 0-.411-.299-.724-.695-.724s-.707.326-.707.724c0 .382.283.722.707.722m-2.623 0c.41 0 .693-.34.693-.722 0-.411-.297-.724-.693-.724s-.723.326-.723.724a.717.717 0 0 0 .723.722m2.539 5.775c0 .128-.027.27-.07.397-.199.582-.766 1.15-1.66 1.15-.639 0-1.178-.383-1.178-1.193 0-1.334 1.547-1.575 2.908-1.547v1.193zm1.319 2.311c-.086-.468-.113-1.05-.113-1.645v-2.567c0-1.376-.512-2.808-2.609-2.808-.867 0-1.688.24-2.256.608l.283.823a3.411 3.411 0 0 1 1.789-.512c1.404 0 1.561 1.022 1.561 1.591v.142c-2.654-.014-4.129.893-4.129 2.552 0 .994.709 1.972 2.098 1.972.98 0 1.719-.481 2.102-1.021h.043l.098.864h1.133zm-9.346-8.509V53h-1.064v.949h1.064v3.746c0 .81.127 1.419.482 1.787.297.34.764.524 1.346.524.482 0 .865-.071 1.105-.171l-.057-.935a2.75 2.75 0 0 1-.723.085c-.695 0-.938-.481-.938-1.334v-3.703h1.787V53h-1.787v-1.972l-1.215.327zm-2.979-1.064a.76.76 0 0 0-.781.779c0 .425.313.765.752.765.496 0 .807-.34.793-.765 0-.438-.297-.779-.764-.779m.623 2.709h-1.246v6.864h1.246V53zm-7.347 6.539c.482.283 1.176.468 1.93.468 1.631 0 2.566-.851 2.566-2.057 0-1.021-.609-1.617-1.801-2.07-.895-.342-1.305-.597-1.305-1.164 0-.512.41-.937 1.148-.937.639 0 1.135.228 1.404.397l.311-.907c-.381-.228-.99-.425-1.686-.425-1.477 0-2.369.905-2.369 2.013 0 .823.582 1.504 1.814 1.944.924.341 1.277.667 1.277 1.263 0 .568-.426 1.021-1.334 1.021-.625 0-1.275-.256-1.645-.496l-.31.95zm-4.154.325h1.232v-3.66c0-.213.027-.411.055-.581.172-.937.797-1.603 1.676-1.603.17 0 .297.014.426.042v-1.175a1.333 1.333 0 0 0-.355-.043c-.838 0-1.59.581-1.9 1.502h-.057L89.615 53h-1.09c.041.639.057 1.333.057 2.143v4.721zm-6.401-4.097c.1-.866.654-2.03 1.916-2.03 1.404 0 1.746 1.235 1.73 2.03h-3.646zm4.809.891c.016-.127.043-.325.043-.58 0-1.263-.594-3.233-2.836-3.233-2.001 0-3.219 1.63-3.219 3.7 0 2.072 1.261 3.462 3.375 3.462 1.092 0 1.844-.228 2.283-.426l-.211-.893c-.469.199-1.01.354-1.902.354-1.249 0-2.327-.695-2.355-2.385h4.822zM73.943 53l2.609 6.864h1.19L80.437 53h-1.305L77.8 56.858a22.686 22.686 0 0 0-.582 1.76h-.043a17.703 17.703 0 0 0-.553-1.759L75.276 53h-1.333zm-1.846-2.709a.76.76 0 0 0-.778.779c0 .425.312.765.751.765.495 0 .807-.34.793-.765 0-.438-.298-.779-.766-.779M72.72 53h-1.246v6.864h1.246V53zm-9.117 6.864h1.246v-4.128c0-.213.027-.425.085-.581.213-.696.852-1.277 1.675-1.277 1.178 0 1.589.923 1.589 2.028v3.958h1.247v-4.099c0-2.354-1.475-2.921-2.425-2.921-1.136 0-1.931.637-2.271 1.289h-.027L64.651 53h-1.104c.041.567.057 1.149.057 1.858v5.006zm-9.149-9.558v5.632c0 2.964 1.474 4.083 3.433 4.083 2.07 0 3.615-1.204 3.615-4.14v-5.575h-1.246v5.66c0 2.112-.908 3.05-2.328 3.05-1.276 0-2.228-.908-2.228-3.05v-5.66h-1.246zM140.812 41.731h3.002v-6.923c0-.34.023-.702.121-.969.313-.896 1.137-1.742 2.322-1.742 1.621 0 2.25 1.282 2.25 2.977v6.657h2.98v-6.995c0-3.729-2.133-5.06-4.189-5.06-1.961 0-3.244 1.113-3.752 2.033h-.072l-.146-1.767h-2.613c.072 1.017.098 2.154.098 3.51v8.279zm-10.385-7.141c.121-1.21.896-2.88 2.736-2.88 1.984 0 2.469 1.791 2.445 2.88h-5.181zm7.893 2.082c.047-.266.096-.702.096-1.259 0-2.59-1.258-5.736-5.082-5.736-3.777 0-5.762 3.074-5.762 6.342 0 3.606 2.252 5.955 6.076 5.955 1.693 0 3.098-.315 4.113-.727l-.436-2.058c-.895.339-1.887.533-3.266.533-1.889 0-3.559-.921-3.633-3.051h7.894zm-16.17-.097c0 .339-.047.751-.121 1.065a2.542 2.542 0 0 1-2.42 1.791c-1.863 0-2.879-1.621-2.879-3.631 0-2.396 1.232-3.849 2.902-3.849 1.26 0 2.107.823 2.422 1.912.072.242.096.533.096.799v1.913zm.484-6.632l-.121 1.573h-.049c-.557-.969-1.621-1.84-3.412-1.84-2.83 0-5.348 2.349-5.348 6.221 0 3.341 2.082 5.761 5.01 5.761 1.549 0 2.758-.702 3.436-1.742h.049v1.017c0 2.542-1.451 3.558-3.389 3.558-1.428 0-2.684-.459-3.436-.896l-.652 2.252c1.016.629 2.611.943 4.113.943 1.621 0 3.314-.339 4.549-1.428 1.234-1.114 1.744-2.881 1.744-5.35v-6.681c0-1.622.047-2.59.096-3.389h-2.59zm-22.023 11.788h3.002v-6.923c0-.34.023-.702.121-.969.314-.896 1.137-1.742 2.322-1.742 1.623 0 2.252 1.282 2.252 2.977v6.657h2.977v-6.995c0-3.729-2.131-5.06-4.188-5.06-1.961 0-3.242 1.113-3.752 2.033h-.072l-.145-1.767h-2.615c.074 1.017.098 2.154.098 3.51v8.279zm-4.695-16.702c-.992 0-1.67.702-1.67 1.622 0 .896.652 1.598 1.646 1.598 1.039 0 1.693-.702 1.693-1.598-.023-.92-.654-1.622-1.669-1.622m1.5 4.914h-3v11.788h3V29.943zm-14.184 5.01c0-.29.049-.556.097-.773.34-1.308 1.429-2.18 2.64-2.18 1.984 0 2.977 1.695 2.977 3.776 0 2.373-1.137 3.873-3.002 3.873-1.283 0-2.323-.896-2.638-2.081a3.25 3.25 0 0 1-.073-.702v-1.913zm-.532 6.778l.146-1.768h.048c.848 1.452 2.202 2.033 3.728 2.033 2.662 0 5.35-2.105 5.35-6.342.023-3.582-2.033-5.979-4.914-5.979-1.766 0-3.049.75-3.775 1.889h-.049v-7.021h-2.977v13.87c0 1.21-.049 2.518-.098 3.316H82.7zm-8.447-13.627c.846 0 1.451-.678 1.451-1.477 0-.872-.605-1.501-1.451-1.501-.848 0-1.477.654-1.477 1.501.001.799.606 1.477 1.477 1.477m-4.817 0c.848 0 1.452-.678 1.452-1.477 0-.872-.629-1.501-1.428-1.501-.871 0-1.524.654-1.524 1.501 0 .799.629 1.477 1.5 1.477m7.6 1.839h-2.977v7.116c0 .339-.072.653-.169.92-.315.751-1.09 1.598-2.275 1.598-1.572 0-2.203-1.259-2.203-3.22v-6.414h-2.977v6.923c0 3.848 1.961 5.131 4.115 5.131 2.105 0 3.267-1.21 3.775-2.057h.049l.145 1.791h2.613a70.09 70.09 0 0 1-.097-3.534v-8.254zM58.23 41.731h2.977V27.91h4.696v-2.494h-12.32v2.494h4.646v13.821zM36.089 53.337c-3.416 0-4.457-2.006-4.457-6.389V11.831h-4.481s-1.174 8.229-5.192 11.52c-3.088 2.529-5.644 2.55-5.644 2.55v5.7h4.828v14.857c0 5.125 1.038 8.154 3.118 10.309 1.781 1.857 4.252 3.121 7.893 3.121 3.193 0 5.868-.371 7.354-.967l-.076-5.883c-.817.15-1.93.299-3.343.299"/><path d="M34.65 25.407h6.194V31.6H34.65z"/></g></svg>